<mxfile host="app.diagrams.net" modified="2024-01-20T00:43:54.134Z" agent="Mozilla/5.0 (Windows NT 10.0; Win64; x64; rv:121.0) Gecko/20100101 Firefox/121.0" etag="JaGCA4K91rjLVwfQnBvW" version="22.1.21" type="device">
  <diagram name="Page-1" id="0ABSv7Pq701wAOnjwbBi">
    <mxGraphModel dx="1007" dy="628" grid="1" gridSize="10" guides="1" tooltips="1" connect="1" arrows="1" fold="1" page="1" pageScale="1" pageWidth="850" pageHeight="1100" math="0" shadow="0">
      <root>
        <mxCell id="0" />
        <mxCell id="1" parent="0" />
        <mxCell id="RQrWrzcCVWck8baC8gGq-16" style="edgeStyle=orthogonalEdgeStyle;rounded=0;orthogonalLoop=1;jettySize=auto;html=1;exitX=1;exitY=0.25;exitDx=0;exitDy=0;entryX=0;entryY=0.25;entryDx=0;entryDy=0;" edge="1" parent="1" source="RQrWrzcCVWck8baC8gGq-1" target="RQrWrzcCVWck8baC8gGq-4">
          <mxGeometry relative="1" as="geometry" />
        </mxCell>
        <mxCell id="RQrWrzcCVWck8baC8gGq-1" value="&lt;div&gt;&lt;font style=&quot;font-size: 19px;&quot;&gt;Component&lt;/font&gt;&lt;/div&gt;&lt;div&gt;&lt;font style=&quot;font-size: 19px;&quot;&gt;A&lt;/font&gt;&lt;/div&gt;" style="rounded=0;whiteSpace=wrap;html=1;fillColor=#ffe6cc;strokeColor=#d79b00;" vertex="1" parent="1">
          <mxGeometry x="120" y="155" width="120" height="252" as="geometry" />
        </mxCell>
        <mxCell id="RQrWrzcCVWck8baC8gGq-4" value="" style="rounded=0;whiteSpace=wrap;html=1;fillColor=#dae8fc;strokeColor=#6c8ebf;" vertex="1" parent="1">
          <mxGeometry x="325" y="140" width="160" height="310" as="geometry" />
        </mxCell>
        <mxCell id="RQrWrzcCVWck8baC8gGq-5" value="&lt;div style=&quot;font-size: 13px;&quot;&gt;&lt;font style=&quot;font-size: 18px;&quot;&gt;Database&lt;/font&gt;&lt;/div&gt;" style="shape=cylinder3;whiteSpace=wrap;html=1;boundedLbl=1;backgroundOutline=1;size=15;" vertex="1" parent="1">
          <mxGeometry x="350" y="250" width="100" height="90" as="geometry" />
        </mxCell>
        <mxCell id="RQrWrzcCVWck8baC8gGq-6" value="&lt;div align=&quot;left&quot; style=&quot;font-size: 16px;&quot;&gt;&lt;font style=&quot;font-size: 16px;&quot;&gt;Message&lt;/font&gt;&lt;/div&gt;&lt;div align=&quot;left&quot; style=&quot;font-size: 16px;&quot;&gt;&lt;font style=&quot;font-size: 16px;&quot;&gt;queue&lt;/font&gt;&lt;/div&gt;" style="strokeWidth=2;html=1;shape=mxgraph.flowchart.multi-document;whiteSpace=wrap;align=left;" vertex="1" parent="1">
          <mxGeometry x="348" y="160" width="104" height="60" as="geometry" />
        </mxCell>
        <mxCell id="RQrWrzcCVWck8baC8gGq-7" value="&lt;div align=&quot;left&quot; style=&quot;font-size: 18px;&quot;&gt;&lt;font style=&quot;font-size: 18px;&quot;&gt;Data&lt;/font&gt;&lt;/div&gt;&lt;div style=&quot;font-size: 18px;&quot;&gt;&lt;font style=&quot;font-size: 18px;&quot;&gt;stream&lt;font style=&quot;font-size: 18px;&quot;&gt;&lt;br&gt;&lt;/font&gt;&lt;/font&gt;&lt;/div&gt;" style="strokeWidth=2;html=1;shape=mxgraph.flowchart.direct_data;whiteSpace=wrap;" vertex="1" parent="1">
          <mxGeometry x="355" y="370" width="100" height="60" as="geometry" />
        </mxCell>
        <mxCell id="RQrWrzcCVWck8baC8gGq-10" value="" style="shape=image;html=1;verticalAlign=top;verticalLabelPosition=bottom;labelBackgroundColor=#ffffff;imageAspect=0;aspect=fixed;image=https://cdn4.iconfinder.com/data/icons/aiga-symbol-signs/444/aiga_information-128.png;rotation=20;imageBackground=none;" vertex="1" parent="1">
          <mxGeometry x="452" y="90" width="88" height="88" as="geometry" />
        </mxCell>
        <mxCell id="RQrWrzcCVWck8baC8gGq-17" style="edgeStyle=orthogonalEdgeStyle;rounded=0;orthogonalLoop=1;jettySize=auto;html=1;exitX=0;exitY=0.75;exitDx=0;exitDy=0;entryX=1;entryY=0.865;entryDx=0;entryDy=0;entryPerimeter=0;" edge="1" parent="1" source="RQrWrzcCVWck8baC8gGq-4" target="RQrWrzcCVWck8baC8gGq-1">
          <mxGeometry relative="1" as="geometry" />
        </mxCell>
        <mxCell id="RQrWrzcCVWck8baC8gGq-21" style="edgeStyle=orthogonalEdgeStyle;rounded=0;orthogonalLoop=1;jettySize=auto;html=1;entryX=1;entryY=0.25;entryDx=0;entryDy=0;exitX=0.008;exitY=0.226;exitDx=0;exitDy=0;exitPerimeter=0;" edge="1" parent="1" source="RQrWrzcCVWck8baC8gGq-18" target="RQrWrzcCVWck8baC8gGq-4">
          <mxGeometry relative="1" as="geometry">
            <mxPoint x="550" y="218" as="sourcePoint" />
          </mxGeometry>
        </mxCell>
        <mxCell id="RQrWrzcCVWck8baC8gGq-18" value="&lt;div&gt;&lt;font style=&quot;font-size: 19px;&quot;&gt;Component&lt;/font&gt;&lt;/div&gt;&lt;div&gt;&lt;font style=&quot;font-size: 19px;&quot;&gt;B&lt;/font&gt;&lt;/div&gt;" style="rounded=0;whiteSpace=wrap;html=1;fillColor=#ffe6cc;strokeColor=#d79b00;" vertex="1" parent="1">
          <mxGeometry x="560" y="160" width="120" height="252" as="geometry" />
        </mxCell>
        <mxCell id="RQrWrzcCVWck8baC8gGq-19" style="edgeStyle=orthogonalEdgeStyle;rounded=0;orthogonalLoop=1;jettySize=auto;html=1;exitX=1;exitY=0.75;exitDx=0;exitDy=0;entryX=0.017;entryY=0.845;entryDx=0;entryDy=0;entryPerimeter=0;" edge="1" parent="1" source="RQrWrzcCVWck8baC8gGq-4" target="RQrWrzcCVWck8baC8gGq-18">
          <mxGeometry relative="1" as="geometry" />
        </mxCell>
      </root>
    </mxGraphModel>
  </diagram>
</mxfile>
